<?xml version="1.0" encoding="UTF-8"?>
<svg xmlns="http://www.w3.org/2000/svg" xmlns:xlink="http://www.w3.org/1999/xlink" width="16px" height="16px" viewBox="0 0 16 16" version="1.1">
<g id="surface1">
<path style=" stroke:none;fill-rule:nonzero;fill:rgb(100%,100%,100%);fill-opacity:1;" d="M 8.667969 14.144531 C 8.996094 14.144531 9.253906 13.996094 9.59375 13.707031 L 14.878906 8.71875 C 15.125 8.472656 15.21875 8.222656 15.21875 8.003906 C 15.21875 7.777344 15.125 7.527344 14.878906 7.28125 L 9.59375 2.339844 C 9.210938 2.023438 9.011719 1.855469 8.683594 1.855469 C 8.222656 1.855469 7.886719 2.230469 7.886719 2.679688 L 7.886719 5.210938 L 7.691406 5.210938 C 2.878906 5.210938 0.78125 8.296875 0.78125 13.246094 C 0.78125 13.824219 1.109375 14.144531 1.464844 14.144531 C 1.753906 14.144531 2.058594 14.078125 2.289062 13.648438 C 3.460938 11.457031 5.101562 10.800781 7.691406 10.800781 L 7.886719 10.800781 L 7.886719 13.359375 C 7.886719 13.808594 8.222656 14.144531 8.667969 14.144531 Z M 8.667969 14.144531 "/>
</g>
</svg>
