<?xml version="1.0" encoding="UTF-8" standalone="no"?>
<!-- Created with Inkscape (http://www.inkscape.org/) -->

<svg
   width="5.7063618mm"
   height="3.7352858mm"
   viewBox="0 0 5.7063618 3.7352858"
   version="1.1"
   id="svg1"
   xml:space="preserve"
   inkscape:export-filename="AddDialog.svg"
   inkscape:export-xdpi="96"
   inkscape:export-ydpi="96"
   xmlns:inkscape="http://www.inkscape.org/namespaces/inkscape"
   xmlns:sodipodi="http://sodipodi.sourceforge.net/DTD/sodipodi-0.dtd"
   xmlns="http://www.w3.org/2000/svg"
   xmlns:svg="http://www.w3.org/2000/svg"><sodipodi:namedview
     id="namedview1"
     pagecolor="#505050"
     bordercolor="#eeeeee"
     borderopacity="1"
     inkscape:showpageshadow="0"
     inkscape:pageopacity="0"
     inkscape:pagecheckerboard="0"
     inkscape:deskcolor="#505050"
     inkscape:document-units="mm" /><defs
     id="defs1" /><g
     inkscape:label="Capa 1"
     inkscape:groupmode="layer"
     id="layer1"
     transform="translate(-103.23744,-146.64791)"><g
       id="g1"
       transform="matrix(0.26458333,0,0,0.26458333,102.97286,146.38333)"
       inkscape:export-filename="AddDialog.svg"
       inkscape:export-xdpi="96"
       inkscape:export-ydpi="96"><path
         fill="#e0e0e0"
         d="M 6,1 A 2,2 0 0 0 4,3 v 7 H 1 v 3 a 2,2 0 0 0 2,2 h 7 a 2,2 0 0 0 2,-2 V 5 h 3 V 3 A 2,2 0 0 0 13,1 Z"
         id="path1" /><path
         fill-opacity="0.2"
         d="M 6,1 A 2,2 0 0 0 4,3 v 7 H 1 v 3 a 2,2 0 1 0 4,0 V 3 a 1,1 0 0 1 2,0 v 3 h 5 V 5 H 8 V 3 A 2,2 0 0 0 6,1 Z M 2,11 h 2 v 2 a 1,1 0 0 1 -2,0 z"
         id="path2" /></g><path
       fill="#e0e0e0"
       d="m 107.44836,147.83011 v 1.09418 h -1.12159 v 0.36472 h 1.12159 v 1.09418 h 0.37385 v -1.09418 h 1.12159 v -0.36472 h -1.12159 v -1.09418 z"
       id="path1-7"
       style="fill:#84ff84;fill-opacity:1;stroke-width:0.184632"
       inkscape:transform-center-x="0.3162645"
       inkscape:transform-center-y="0.60605546" /></g></svg>
