<?xml version="1.0" encoding="UTF-8"?>
<svg xmlns="http://www.w3.org/2000/svg" xmlns:xlink="http://www.w3.org/1999/xlink" width="16px" height="16px" viewBox="0 0 16 16" version="1.1">
<g id="surface1">
<path style=" stroke:none;fill-rule:evenodd;fill:rgb(100%,100%,100%);fill-opacity:1;" d="M 14.117188 0 C 15.15625 0 16 0.84375 16 1.882812 L 16 14.117188 C 16 15.15625 15.15625 16 14.117188 16 L 1.882812 16 C 0.84375 16 0 15.15625 0 14.117188 L 0 1.882812 C 0 0.84375 0.84375 0 1.882812 0 Z M 11.292969 14.117188 L 14.121094 14.117188 L 14.121094 11.292969 L 11.292969 11.292969 Z M 6.589844 9.410156 L 9.410156 9.410156 L 9.410156 6.589844 L 6.589844 6.589844 Z M 6.589844 14.117188 L 9.410156 14.117188 L 9.410156 11.292969 L 6.589844 11.292969 Z M 1.882812 9.410156 L 4.707031 9.410156 L 4.707031 6.589844 L 1.882812 6.589844 Z M 1.882812 14.117188 L 4.707031 14.117188 L 4.707031 11.292969 L 1.882812 11.292969 Z M 11.292969 9.410156 L 14.117188 9.410156 L 14.117188 6.589844 L 11.292969 6.589844 Z M 11.292969 9.410156 "/>
</g>
</svg>
