<?xml version="1.0" encoding="UTF-8"?>
<svg xmlns="http://www.w3.org/2000/svg" xmlns:xlink="http://www.w3.org/1999/xlink" width="16px" height="16px" viewBox="0 0 16 16" version="1.1">
<g id="surface1">
<path style=" stroke:none;fill-rule:nonzero;fill:rgb(100%,100%,100%);fill-opacity:1;" d="M 12.148438 13.832031 L 3.851562 13.832031 C 3.621094 13.824219 3.394531 13.769531 3.183594 13.671875 C 2.976562 13.574219 2.785156 13.4375 2.628906 13.265625 C 2.472656 13.097656 2.351562 12.898438 2.273438 12.679688 C 2.191406 12.460938 2.15625 12.230469 2.167969 12 L 2.167969 10 C 2.167969 9.867188 2.21875 9.738281 2.3125 9.644531 C 2.40625 9.550781 2.535156 9.5 2.667969 9.5 C 2.800781 9.5 2.925781 9.550781 3.019531 9.644531 C 3.113281 9.738281 3.167969 9.867188 3.167969 10 L 3.167969 12 C 3.148438 12.199219 3.210938 12.394531 3.332031 12.550781 C 3.457031 12.707031 3.636719 12.808594 3.832031 12.832031 L 12.148438 12.832031 C 12.34375 12.808594 12.523438 12.707031 12.648438 12.550781 C 12.769531 12.394531 12.832031 12.199219 12.8125 12 L 12.8125 10 C 12.8125 9.867188 12.867188 9.738281 12.960938 9.644531 C 13.054688 9.550781 13.179688 9.5 13.3125 9.5 C 13.445312 9.5 13.574219 9.550781 13.667969 9.644531 C 13.761719 9.738281 13.8125 9.867188 13.8125 10 L 13.8125 12 C 13.832031 12.464844 13.667969 12.917969 13.355469 13.257812 C 13.046875 13.601562 12.609375 13.808594 12.148438 13.832031 Z M 12.148438 13.832031 "/>
<path style=" stroke:none;fill-rule:nonzero;fill:rgb(100%,100%,100%);fill-opacity:1;" d="M 8 10.5 C 7.933594 10.5 7.871094 10.488281 7.808594 10.460938 C 7.746094 10.4375 7.691406 10.398438 7.648438 10.351562 L 4.980469 7.6875 C 4.890625 7.59375 4.84375 7.464844 4.847656 7.335938 C 4.847656 7.207031 4.902344 7.082031 4.992188 6.992188 C 5.082031 6.902344 5.207031 6.847656 5.335938 6.847656 C 5.464844 6.84375 5.59375 6.890625 5.6875 6.980469 L 8 9.292969 L 10.3125 6.980469 C 10.40625 6.890625 10.535156 6.84375 10.664062 6.847656 C 10.792969 6.847656 10.917969 6.902344 11.007812 6.992188 C 11.097656 7.082031 11.152344 7.207031 11.152344 7.335938 C 11.15625 7.464844 11.109375 7.59375 11.019531 7.6875 L 8.351562 10.351562 C 8.308594 10.398438 8.253906 10.4375 8.191406 10.460938 C 8.128906 10.488281 8.066406 10.5 8 10.5 Z M 8 10.5 "/>
<path style=" stroke:none;fill-rule:nonzero;fill:rgb(100%,100%,100%);fill-opacity:1;" d="M 8 10.5 C 7.867188 10.5 7.742188 10.445312 7.648438 10.351562 C 7.554688 10.257812 7.5 10.132812 7.5 10 L 7.5 2.667969 C 7.5 2.535156 7.550781 2.40625 7.644531 2.3125 C 7.738281 2.21875 7.867188 2.167969 8 2.167969 C 8.132812 2.167969 8.261719 2.21875 8.355469 2.3125 C 8.449219 2.40625 8.5 2.535156 8.5 2.667969 L 8.5 10 C 8.5 10.132812 8.445312 10.257812 8.351562 10.351562 C 8.257812 10.445312 8.132812 10.5 8 10.5 Z M 8 10.5 "/>
</g>
</svg>
