<?xml version="1.0" encoding="UTF-8"?>
<svg xmlns="http://www.w3.org/2000/svg" xmlns:xlink="http://www.w3.org/1999/xlink" width="16px" height="16px" viewBox="0 0 16 16" version="1.1">
<g id="surface1">
<path style=" stroke:none;fill-rule:nonzero;fill:rgb(100%,100%,100%);fill-opacity:1;" d="M 8 1.332031 C 4.71875 1.320312 1.917969 3.695312 1.394531 6.933594 C 0.871094 10.171875 2.777344 13.308594 5.894531 14.332031 C 6.226562 14.386719 6.332031 14.179688 6.332031 14 L 6.332031 12.875 C 4.488281 13.273438 4.09375 12 4.09375 12 C 3.96875 11.585938 3.699219 11.230469 3.332031 11 C 2.726562 10.585938 3.378906 10.601562 3.378906 10.601562 C 3.804688 10.65625 4.179688 10.898438 4.398438 11.265625 C 4.785156 11.953125 5.652344 12.199219 6.339844 11.820312 C 6.371094 11.480469 6.519531 11.164062 6.761719 10.925781 C 5.332031 10.78125 3.746094 10.207031 3.746094 7.667969 C 3.726562 7 3.964844 6.355469 4.414062 5.859375 C 4.210938 5.285156 4.234375 4.65625 4.480469 4.101562 C 4.480469 4.101562 5.039062 3.921875 6.3125 4.765625 C 7.40625 4.472656 8.554688 4.472656 9.648438 4.765625 C 10.921875 3.90625 11.480469 4.101562 11.480469 4.101562 C 11.726562 4.65625 11.75 5.285156 11.546875 5.859375 C 11.992188 6.355469 12.234375 7 12.214844 7.667969 C 12.214844 10.214844 10.652344 10.773438 9.167969 10.941406 C 9.492188 11.265625 9.660156 11.714844 9.625 12.171875 L 9.625 14 C 9.625 14.179688 9.734375 14.394531 10.074219 14.332031 C 13.183594 13.3125 15.089844 10.183594 14.574219 6.949219 C 14.058594 3.71875 11.273438 1.335938 8 1.332031 Z M 8 1.332031 "/>
</g>
</svg>
