<?xml version="1.0" encoding="UTF-8"?>
<svg xmlns="http://www.w3.org/2000/svg" xmlns:xlink="http://www.w3.org/1999/xlink" width="16px" height="16px" viewBox="0 0 16 16" version="1.1">
<g id="surface1">
<path style=" stroke:none;fill-rule:nonzero;fill:rgb(100%,100%,100%);fill-opacity:1;" d="M 8 13.167969 C 7.867188 13.167969 7.742188 13.113281 7.648438 13.019531 L 3.132812 8.492188 C 2.523438 7.871094 2.179688 7.03125 2.179688 6.160156 C 2.179688 5.289062 2.523438 4.449219 3.132812 3.828125 C 3.753906 3.207031 4.589844 2.859375 5.464844 2.859375 C 6.34375 2.859375 7.179688 3.207031 7.800781 3.828125 L 8 4 L 8.1875 3.8125 C 8.492188 3.503906 8.855469 3.257812 9.257812 3.089844 C 9.660156 2.925781 10.089844 2.839844 10.527344 2.839844 C 10.960938 2.839844 11.390625 2.921875 11.792969 3.089844 C 12.195312 3.253906 12.558594 3.5 12.867188 3.808594 C 13.476562 4.429688 13.820312 5.265625 13.820312 6.140625 C 13.820312 7.011719 13.476562 7.851562 12.867188 8.472656 L 8.351562 13 C 8.308594 13.050781 8.253906 13.089844 8.195312 13.121094 C 8.132812 13.148438 8.066406 13.164062 8 13.167969 Z M 5.472656 3.832031 C 5.171875 3.832031 4.871094 3.890625 4.589844 4.003906 C 4.308594 4.117188 4.054688 4.285156 3.839844 4.5 C 3.40625 4.933594 3.164062 5.523438 3.164062 6.136719 C 3.164062 6.75 3.40625 7.339844 3.839844 7.773438 L 8 11.960938 L 12.152344 7.785156 C 12.367188 7.570312 12.539062 7.316406 12.65625 7.035156 C 12.773438 6.753906 12.832031 6.453125 12.832031 6.148438 C 12.832031 5.847656 12.773438 5.546875 12.65625 5.265625 C 12.539062 4.984375 12.367188 4.726562 12.152344 4.511719 C 11.941406 4.300781 11.6875 4.128906 11.40625 4.015625 C 11.128906 3.902344 10.828125 3.84375 10.527344 3.847656 C 10.222656 3.84375 9.921875 3.902344 9.644531 4.015625 C 9.363281 4.132812 9.109375 4.300781 8.894531 4.511719 L 8.351562 5.054688 C 8.257812 5.144531 8.132812 5.195312 8 5.195312 C 7.867188 5.195312 7.742188 5.144531 7.648438 5.054688 L 7.105469 4.511719 C 6.894531 4.296875 6.636719 4.125 6.359375 4.007812 C 6.078125 3.894531 5.777344 3.832031 5.472656 3.832031 Z M 5.472656 3.832031 "/>
</g>
</svg>
