<!-- Created with PixiEditor (https://pixieditor.net) -->
<svg version="1.1" viewBox="0 0 16 16" xmlns="http://www.w3.org/2000/svg">
  <path d="M15.39 27.14L5.55 31.36C5.04 31.58 4.52 31.08 4.72 30.56L6.5 25.87C6.6 25.61 6.85 25.45 7.12 25.47L15.18 25.94C15.84 25.98 15.99 26.88 15.39 27.14Z" fill-rule="nonzero" transform="matrix(0.5733046, 0, 0, 0.51917624, -1.3377033, -0.3090083)" fill="#e0e0e0" fill-opacity="1" stroke="#ffffff" stroke-width="0" stroke-linecap="butt" stroke-linejoin="miter" opacity="1" id="Path" />
  <g opacity="1" id="Nueva carpeta">
    <path d="M28.77 21.58C27.86 26.88 21.14 29.34 16.66 29.41C16.47 29.41 16.27 29.41 16.08 29.41C10.52 29.25 4.23 25.83 3.71 20.88C3.55 19.39 3.93 17.8 4.81 16.28C4.81 14.1 5.01 12 5.4 10.03C5.66 8.75 6 7.53 6.42 6.38C6.58 5.95 6.92 5.64 7.34 5.56C7.75 5.47 8.19 5.62 8.5 5.96C9.33 6.85 10.13 7.84 10.86 8.92C11.21 9.43 11.55 9.96 11.89 10.54C12.74 10.22 13.61 9.99 14.48 9.86C14.44 9.7 14.4 9.54 14.38 9.39C14.23 8.47 14.31 7.53 14.6 6.62C13.84 6.65 13.08 6.51 12.39 6.21C10.7 5.49 9.52 3.9 9.3 2.07C9.28 1.9 9.35 1.74 9.48 1.63C10.95 0.53 12.92 0.28 14.61 1.01C15.53 1.41 16.32 2.07 16.87 2.91C17.44 2.24 18.18 1.72 19 1.41C20.73 0.77 22.68 1.11 24.1 2.29C24.23 2.4 24.29 2.56 24.27 2.73C23.97 4.55 22.7 6.08 20.98 6.72C19.83 7.15 18.6 7.15 17.46 6.74C17.18 7.21 16.86 8.01 17.01 8.96C17.05 9.22 17.13 9.48 17.24 9.73C18.57 9.83 19.92 10.17 21.25 10.74C21.6 10.21 21.96 9.72 22.32 9.24C23.12 8.21 23.97 7.26 24.85 6.42C25.18 6.1 25.62 5.98 26.03 6.09C26.44 6.2 26.76 6.52 26.89 6.96C27.25 8.13 27.52 9.37 27.71 10.66C27.99 12.61 28.07 14.67 27.96 16.8C28.76 18.4 29.04 20.06 28.78 21.58L28.77 21.58Z" fill-rule="nonzero" transform="matrix(0.5733046, 0, 0, 0.51917624, -1.3377033, -0.3090083)" fill="#e0e0e0" fill-opacity="1" stroke="#ffffff" stroke-width="0" stroke-linecap="butt" stroke-linejoin="miter" opacity="1" id="Path" />
  </g>
</svg>