<?xml version="1.0" encoding="UTF-8"?>
<svg xmlns="http://www.w3.org/2000/svg" xmlns:xlink="http://www.w3.org/1999/xlink" width="16px" height="16px" viewBox="0 0 16 16" version="1.1">
<g id="surface1">
<path style=" stroke:none;fill-rule:nonzero;fill:rgb(100%,100%,100%);fill-opacity:1;" d="M 15.167969 13.164062 L 11.667969 6.164062 C 11.542969 5.910156 11.28125 5.75 11 5.75 C 10.714844 5.75 10.457031 5.910156 10.328125 6.164062 L 9.046875 8.726562 C 8.183594 8.652344 7.351562 8.363281 6.625 7.886719 C 7.503906 6.863281 8.058594 5.59375 8.207031 4.25 L 9.5 4.25 C 9.914062 4.25 10.25 3.914062 10.25 3.5 C 10.25 3.085938 9.914062 2.75 9.5 2.75 L 6.25 2.75 L 6.25 2 C 6.25 1.585938 5.914062 1.25 5.5 1.25 C 5.085938 1.25 4.75 1.585938 4.75 2 L 4.75 2.75 L 1.5 2.75 C 1.085938 2.75 0.75 3.085938 0.75 3.5 C 0.75 3.914062 1.085938 4.25 1.5 4.25 L 6.695312 4.25 C 6.554688 5.226562 6.140625 6.144531 5.5 6.894531 C 5.1875 6.53125 4.925781 6.125 4.726562 5.6875 C 4.550781 5.3125 4.105469 5.144531 3.730469 5.320312 C 3.355469 5.492188 3.1875 5.9375 3.363281 6.3125 C 3.625 6.882812 3.964844 7.414062 4.375 7.890625 C 3.519531 8.453125 2.519531 8.75 1.5 8.75 C 1.085938 8.75 0.75 9.085938 0.75 9.5 C 0.75 9.914062 1.085938 10.25 1.5 10.25 C 2.941406 10.25 4.34375 9.789062 5.5 8.933594 C 6.339844 9.550781 7.3125 9.964844 8.335938 10.144531 L 6.828125 13.164062 C 6.644531 13.535156 6.792969 13.984375 7.164062 14.171875 C 7.535156 14.355469 7.984375 14.207031 8.167969 13.835938 L 8.960938 12.25 L 13.035156 12.25 L 13.828125 13.835938 C 14.011719 14.207031 14.464844 14.355469 14.835938 14.171875 C 15.203125 13.984375 15.355469 13.535156 15.167969 13.164062 Z M 9.710938 10.75 L 11 8.175781 L 12.285156 10.75 Z M 9.710938 10.75 "/>
</g>
</svg>
