<?xml version="1.0" encoding="UTF-8" standalone="no"?>
<!-- Uploaded to: SVG Repo, www.svgrepo.com, Transformed by: SVG Repo Mixer Tools -->

<svg
   fill="#ffffff"
   width="16.000002"
   height="16"
   viewBox="0 0 25.000003 25"
   enable-background="new 0 0 100 100"
   xml:space="preserve"
   version="1.1"
   id="svg1"
   sodipodi:docname="variable-svgrepo-com.svg"
   inkscape:export-filename="Variable.svg"
   inkscape:export-xdpi="40"
   inkscape:export-ydpi="40"
   xmlns:inkscape="http://www.inkscape.org/namespaces/inkscape"
   xmlns:sodipodi="http://sodipodi.sourceforge.net/DTD/sodipodi-0.dtd"
   xmlns="http://www.w3.org/2000/svg"
   xmlns:svg="http://www.w3.org/2000/svg"><defs
   id="defs1" /><sodipodi:namedview
   id="namedview1"
   pagecolor="#505050"
   bordercolor="#eeeeee"
   borderopacity="1"
   inkscape:showpageshadow="0"
   inkscape:pageopacity="0"
   inkscape:pagecheckerboard="0"
   inkscape:deskcolor="#505050" />





<g
   id="SVGRepo_iconCarrier"
   inkscape:export-filename="Variable.svg"
   inkscape:export-xdpi="40"
   inkscape:export-ydpi="40"
   transform="matrix(0.41666667,0,0,0.42517007,-8.333333,-8.7585034)"> <path
   d="M 70.9,39.7 C 74,39.7 80,37.2 80,29.1 80,21 74.2,20.6 72.4,20.6 68.8,20.6 65.3,23.2 62.2,28.5 59.1,34 55.6,40 55.6,40 H 55.5 C 54.7,36.2 54.1,33 53.8,31.6 53.2,28.3 49.3,21 41.3,21 33.3,21 26,25.6 26,25.6 v 0 c -1.4,0.9 -2.3,2.4 -2.3,4.1 0,2.7 2.2,4.9 4.9,4.9 0.8,0 1.5,-0.2 2.1,-0.5 v 0 c 0,0 6.1,-3.4 7.4,0 0.4,1 0.7,2.2 1.1,3.4 1.6,5.2 3,11.4 4.2,17 l -5.2,7.6 c 0,0 -5.9,-2.1 -9,-2.1 -3.1,0 -9.2,2.5 -9.2,10.6 0,8.1 5.8,8.5 7.6,8.5 3.6,0 7.1,-2.6 10.2,-7.9 3.1,-5.5 6.6,-11.5 6.6,-11.5 1,5 1.9,9 2.4,10.6 2,5.7 6.6,9.1 12.7,9.1 0,0 6.3,0 13.7,-4.2 1.8,-0.7 3.1,-2.5 3.1,-4.5 0,-2.7 -2.2,-4.9 -4.9,-4.9 -0.8,0 -1.5,0.2 -2.1,0.5 v 0 c 0,0 -5.3,3 -7.1,0.6 C 60.9,64.4 59.8,61.2 59,57.2 58.2,53.6 57.3,49.4 56.5,45.3 l 5.3,-7.7 c 0.1,0 6,2.1 9.1,2.1 z"
   id="path1" /> </g>

</svg>
