<?xml version="1.0" encoding="UTF-8"?>
<svg xmlns="http://www.w3.org/2000/svg" xmlns:xlink="http://www.w3.org/1999/xlink" width="16px" height="16px" viewBox="0 0 16 16" version="1.1">
<g id="surface1">
<path style=" stroke:none;fill-rule:nonzero;fill:rgb(100%,100%,100%);fill-opacity:1;" d="M 7.25 7.25 C 7.25 7.800781 6.800781 8.25 6.25 8.25 C 5.699219 8.25 5.25 7.800781 5.25 7.25 C 5.25 6.699219 5.699219 6.25 6.25 6.25 C 6.800781 6.25 7.25 6.699219 7.25 7.25 Z M 9.75 6.25 C 9.199219 6.25 8.75 6.699219 8.75 7.25 C 8.75 7.800781 9.199219 8.25 9.75 8.25 C 10.300781 8.25 10.75 7.800781 10.75 7.25 C 10.75 6.699219 10.300781 6.25 9.75 6.25 Z M 14.25 7.5 L 14.25 13.5 C 14.25 13.789062 14.082031 14.054688 13.820312 14.179688 C 13.558594 14.300781 13.25 14.265625 13.023438 14.082031 L 11.667969 12.96875 L 10.308594 14.082031 C 10.03125 14.304688 9.632812 14.304688 9.359375 14.082031 L 8 12.96875 L 6.640625 14.082031 C 6.367188 14.304688 5.96875 14.304688 5.691406 14.082031 L 4.332031 12.96875 L 2.976562 14.082031 C 2.75 14.265625 2.441406 14.300781 2.179688 14.175781 C 1.917969 14.054688 1.75 13.789062 1.75 13.5 L 1.75 7.5 C 1.75 4.046875 4.546875 1.25 8 1.25 C 11.453125 1.25 14.25 4.046875 14.25 7.5 Z M 12.75 7.5 C 12.75 4.875 10.625 2.75 8 2.75 C 5.375 2.75 3.25 4.875 3.25 7.5 L 3.25 11.917969 L 3.859375 11.417969 C 4.132812 11.195312 4.53125 11.195312 4.808594 11.417969 L 6.167969 12.53125 L 7.523438 11.417969 C 7.800781 11.195312 8.199219 11.195312 8.476562 11.417969 L 9.832031 12.53125 L 11.191406 11.417969 C 11.46875 11.195312 11.867188 11.195312 12.140625 11.417969 L 12.75 11.917969 Z M 12.75 7.5 "/>
</g>
</svg>
