<?xml version="1.0" encoding="UTF-8"?>
<svg xmlns="http://www.w3.org/2000/svg" xmlns:xlink="http://www.w3.org/1999/xlink" width="16px" height="16px" viewBox="0 0 16 16" version="1.1">
<g id="surface1">
<path style=" stroke:none;fill-rule:nonzero;fill:rgb(100%,100%,100%);fill-opacity:1;" d="M 13.304688 7.644531 L 11.410156 9.539062 C 10.042969 10.902344 7.828125 10.902344 6.460938 9.539062 C 6.167969 9.246094 6.167969 8.773438 6.460938 8.480469 C 6.753906 8.1875 7.226562 8.1875 7.519531 8.480469 C 8.304688 9.257812 9.566406 9.257812 10.351562 8.480469 L 12.242188 6.585938 C 13.023438 5.804688 13.023438 4.539062 12.242188 3.757812 C 11.460938 2.976562 10.195312 2.976562 9.414062 3.757812 L 8.8125 4.359375 C 8.519531 4.652344 8.042969 4.652344 7.75 4.359375 C 7.457031 4.066406 7.457031 3.59375 7.75 3.300781 L 8.355469 2.695312 C 9.71875 1.328125 11.9375 1.328125 13.304688 2.695312 C 14.671875 4.0625 14.671875 6.28125 13.304688 7.644531 Z M 7.1875 11.640625 L 6.585938 12.242188 C 5.804688 13.023438 4.539062 13.023438 3.757812 12.242188 C 2.976562 11.460938 2.976562 10.195312 3.757812 9.414062 L 5.648438 7.519531 C 6.433594 6.742188 7.695312 6.742188 8.480469 7.519531 C 8.773438 7.8125 9.246094 7.8125 9.539062 7.519531 C 9.832031 7.226562 9.832031 6.753906 9.539062 6.460938 C 8.171875 5.097656 5.957031 5.097656 4.589844 6.460938 L 2.695312 8.355469 C 1.332031 9.71875 1.332031 11.933594 2.699219 13.300781 C 4.066406 14.667969 6.277344 14.667969 7.644531 13.304688 L 8.25 12.699219 C 8.542969 12.40625 8.542969 11.933594 8.25 11.640625 C 7.957031 11.347656 7.480469 11.347656 7.1875 11.640625 Z M 7.1875 11.640625 "/>
</g>
</svg>
