<?xml version="1.0" encoding="UTF-8"?>
<svg xmlns="http://www.w3.org/2000/svg" xmlns:xlink="http://www.w3.org/1999/xlink" width="16px" height="16px" viewBox="0 0 16 16" version="1.1">
<g id="surface1">
<path style=" stroke:none;fill-rule:nonzero;fill:rgb(100%,100%,100%);fill-opacity:1;" d="M 5 7.25 L 11 7.25 C 11.414062 7.25 11.75 7.585938 11.75 8 C 11.75 8.414062 11.414062 8.75 11 8.75 L 5 8.75 C 4.585938 8.75 4.25 8.414062 4.25 8 C 4.25 7.585938 4.585938 7.25 5 7.25 Z M 6.5 10.25 L 4 10.25 C 2.753906 10.25 1.75 9.242188 1.75 8 C 1.75 6.757812 2.753906 5.75 4 5.75 L 6.5 5.75 C 6.914062 5.75 7.25 5.414062 7.25 5 C 7.25 4.585938 6.914062 4.25 6.5 4.25 L 4 4.25 C 1.925781 4.25 0.25 5.929688 0.25 8 C 0.25 10.070312 1.925781 11.75 4 11.75 L 6.5 11.75 C 6.914062 11.75 7.25 11.414062 7.25 11 C 7.25 10.585938 6.914062 10.25 6.5 10.25 Z M 12 4.25 L 9.5 4.25 C 9.085938 4.25 8.75 4.585938 8.75 5 C 8.75 5.414062 9.085938 5.75 9.5 5.75 L 12 5.75 C 13.242188 5.75 14.25 6.757812 14.25 8 C 14.25 9.242188 13.242188 10.25 12 10.25 L 9.5 10.25 C 9.085938 10.25 8.75 10.585938 8.75 11 C 8.75 11.414062 9.085938 11.75 9.5 11.75 L 12 11.75 C 14.070312 11.75 15.75 10.070312 15.75 8 C 15.75 5.929688 14.070312 4.25 12 4.25 Z M 12 4.25 "/>
</g>
</svg>
