<?xml version="1.0" encoding="UTF-8"?>
<svg xmlns="http://www.w3.org/2000/svg" xmlns:xlink="http://www.w3.org/1999/xlink" width="16px" height="16px" viewBox="0 0 16 16" version="1.1">
<g id="surface1">
<path style=" stroke:none;fill-rule:nonzero;fill:rgb(100%,100%,100%);fill-opacity:1;" d="M 14.25 8 C 14.25 8.414062 13.914062 8.75 13.5 8.75 L 6.75 8.75 C 6.335938 8.75 6 8.414062 6 8 C 6 7.585938 6.335938 7.25 6.75 7.25 L 13.5 7.25 C 13.914062 7.25 14.25 7.585938 14.25 8 Z M 6.75 4.75 L 13.5 4.75 C 13.914062 4.75 14.25 4.414062 14.25 4 C 14.25 3.585938 13.914062 3.25 13.5 3.25 L 6.75 3.25 C 6.335938 3.25 6 3.585938 6 4 C 6 4.414062 6.335938 4.75 6.75 4.75 Z M 13.5 11.25 L 6.75 11.25 C 6.335938 11.25 6 11.585938 6 12 C 6 12.414062 6.335938 12.75 6.75 12.75 L 13.5 12.75 C 13.914062 12.75 14.25 12.414062 14.25 12 C 14.25 11.585938 13.914062 11.25 13.5 11.25 Z M 2.75 4.457031 L 2.75 6.75 C 2.75 7.164062 3.085938 7.5 3.5 7.5 C 3.914062 7.5 4.25 7.164062 4.25 6.75 L 4.25 3.25 C 4.25 2.988281 4.117188 2.75 3.894531 2.613281 C 3.671875 2.476562 3.398438 2.464844 3.164062 2.578125 L 2.164062 3.078125 C 1.808594 3.257812 1.65625 3.679688 1.808594 4.042969 C 1.964844 4.40625 2.375 4.589844 2.75 4.457031 Z M 4.722656 10.785156 C 5.066406 10.273438 5.09375 9.605469 4.785156 9.070312 C 4.480469 8.53125 3.894531 8.214844 3.277344 8.253906 C 2.660156 8.289062 2.117188 8.671875 1.878906 9.242188 C 1.71875 9.625 1.894531 10.0625 2.277344 10.226562 C 2.65625 10.386719 3.097656 10.207031 3.257812 9.828125 C 3.28125 9.773438 3.339844 9.742188 3.398438 9.753906 C 3.457031 9.765625 3.5 9.816406 3.5 9.875 C 3.5 9.894531 3.496094 9.917969 3.484375 9.9375 L 1.898438 12.050781 C 1.730469 12.277344 1.703125 12.582031 1.828125 12.835938 C 1.957031 13.089844 2.214844 13.25 2.5 13.25 L 4.25 13.25 C 4.664062 13.25 5 12.914062 5 12.5 C 5 12.085938 4.664062 11.75 4.25 11.75 L 4 11.75 L 4.699219 10.8125 C 4.707031 10.804688 4.714844 10.792969 4.722656 10.785156 Z M 4.722656 10.785156 "/>
</g>
</svg>
