<?xml version="1.0" encoding="UTF-8"?>
<svg xmlns="http://www.w3.org/2000/svg" xmlns:xlink="http://www.w3.org/1999/xlink" width="16px" height="16px" viewBox="0 0 16 16" version="1.1">
<g id="surface1">
<path style=" stroke:none;fill-rule:nonzero;fill:rgb(100%,100%,100%);fill-opacity:1;" d="M 4.75 4 C 4.75 3.585938 5.085938 3.25 5.5 3.25 L 13.5 3.25 C 13.914062 3.25 14.25 3.585938 14.25 4 C 14.25 4.414062 13.914062 4.75 13.5 4.75 L 5.5 4.75 C 5.085938 4.75 4.75 4.414062 4.75 4 Z M 13.5 7.25 L 5.5 7.25 C 5.085938 7.25 4.75 7.585938 4.75 8 C 4.75 8.414062 5.085938 8.75 5.5 8.75 L 13.5 8.75 C 13.914062 8.75 14.25 8.414062 14.25 8 C 14.25 7.585938 13.914062 7.25 13.5 7.25 Z M 13.5 11.25 L 5.5 11.25 C 5.085938 11.25 4.75 11.585938 4.75 12 C 4.75 12.414062 5.085938 12.75 5.5 12.75 L 13.5 12.75 C 13.914062 12.75 14.25 12.414062 14.25 12 C 14.25 11.585938 13.914062 11.25 13.5 11.25 Z M 2.75 7 C 2.199219 7 1.75 7.449219 1.75 8 C 1.75 8.550781 2.199219 9 2.75 9 C 3.300781 9 3.75 8.550781 3.75 8 C 3.75 7.449219 3.300781 7 2.75 7 Z M 2.75 3 C 2.199219 3 1.75 3.449219 1.75 4 C 1.75 4.550781 2.199219 5 2.75 5 C 3.300781 5 3.75 4.550781 3.75 4 C 3.75 3.449219 3.300781 3 2.75 3 Z M 2.75 11 C 2.199219 11 1.75 11.449219 1.75 12 C 1.75 12.550781 2.199219 13 2.75 13 C 3.300781 13 3.75 12.550781 3.75 12 C 3.75 11.449219 3.300781 11 2.75 11 Z M 2.75 11 "/>
</g>
</svg>
