<?xml version="1.0" encoding="UTF-8"?>
<svg xmlns="http://www.w3.org/2000/svg" xmlns:xlink="http://www.w3.org/1999/xlink" width="16px" height="16px" viewBox="0 0 16 16" version="1.1">
<g id="surface1">
<path style=" stroke:none;fill-rule:nonzero;fill:rgb(100%,100%,100%);fill-opacity:1;" d="M 16 9.5 C 16 9.914062 15.664062 10.25 15.25 10.25 L 14.5 10.25 L 14.5 11 C 14.5 11.414062 14.164062 11.75 13.75 11.75 C 13.335938 11.75 13 11.414062 13 11 L 13 10.25 L 12.25 10.25 C 11.835938 10.25 11.5 9.914062 11.5 9.5 C 11.5 9.085938 11.835938 8.75 12.25 8.75 L 13 8.75 L 13 8 C 13 7.585938 13.335938 7.25 13.75 7.25 C 14.164062 7.25 14.5 7.585938 14.5 8 L 14.5 8.75 L 15.25 8.75 C 15.664062 8.75 16 9.085938 16 9.5 Z M 3.75 4.25 L 4.25 4.25 L 4.25 4.75 C 4.25 5.164062 4.585938 5.5 5 5.5 C 5.414062 5.5 5.75 5.164062 5.75 4.75 L 5.75 4.25 L 6.25 4.25 C 6.664062 4.25 7 3.914062 7 3.5 C 7 3.085938 6.664062 2.75 6.25 2.75 L 5.75 2.75 L 5.75 2.25 C 5.75 1.835938 5.414062 1.5 5 1.5 C 4.585938 1.5 4.25 1.835938 4.25 2.25 L 4.25 2.75 L 3.75 2.75 C 3.335938 2.75 3 3.085938 3 3.5 C 3 3.914062 3.335938 4.25 3.75 4.25 Z M 11.25 12 L 11 12 L 11 11.75 C 11 11.335938 10.664062 11 10.25 11 C 9.835938 11 9.5 11.335938 9.5 11.75 L 9.5 12 L 9.25 12 C 8.835938 12 8.5 12.335938 8.5 12.75 C 8.5 13.164062 8.835938 13.5 9.25 13.5 L 9.5 13.5 L 9.5 13.75 C 9.5 14.164062 9.835938 14.5 10.25 14.5 C 10.664062 14.5 11 14.164062 11 13.75 L 11 13.5 L 11.25 13.5 C 11.664062 13.5 12 13.164062 12 12.75 C 12 12.335938 11.664062 12 11.25 12 Z M 11.53125 7.53125 L 4.882812 14.175781 C 4.394531 14.664062 3.605469 14.664062 3.117188 14.175781 L 1.824219 12.882812 C 1.335938 12.394531 1.335938 11.605469 1.824219 11.117188 L 11.117188 1.824219 C 11.605469 1.335938 12.394531 1.335938 12.882812 1.824219 L 14.175781 3.117188 C 14.664062 3.605469 14.664062 4.394531 14.175781 4.882812 Z M 10.0625 5 L 11 5.9375 L 12.9375 4 L 12 3.0625 Z M 9.9375 7 L 9 6.0625 L 3.0625 12 L 4 12.9375 Z M 9.9375 7 "/>
</g>
</svg>
