<?xml version="1.0" encoding="UTF-8"?>
<svg xmlns="http://www.w3.org/2000/svg" xmlns:xlink="http://www.w3.org/1999/xlink" width="16px" height="16px" viewBox="0 0 16 16" version="1.1">
<g id="surface1">
<path style=" stroke:none;fill-rule:nonzero;fill:rgb(100%,100%,100%);fill-opacity:1;" d="M 10 13.75 C 9.988281 13.75 9.976562 13.75 9.960938 13.75 C 9.664062 13.734375 9.40625 13.546875 9.300781 13.265625 L 5.9375 4.445312 L 4.183594 8.308594 C 4.0625 8.578125 3.792969 8.75 3.5 8.75 L 1.5 8.75 C 1.085938 8.75 0.75 8.414062 0.75 8 C 0.75 7.585938 1.085938 7.25 1.5 7.25 L 3.015625 7.25 L 5.316406 2.191406 C 5.441406 1.914062 5.722656 1.742188 6.023438 1.75 C 6.324219 1.761719 6.59375 1.949219 6.699219 2.234375 L 10.09375 11.136719 L 11.828125 7.664062 C 11.957031 7.410156 12.214844 7.25 12.5 7.25 L 14.5 7.25 C 14.914062 7.25 15.25 7.585938 15.25 8 C 15.25 8.414062 14.914062 8.75 14.5 8.75 L 12.964844 8.75 L 10.671875 13.335938 C 10.542969 13.589844 10.285156 13.75 10 13.75 Z M 10 13.75 "/>
</g>
</svg>
