<?xml version="1.0" encoding="UTF-8"?>
<svg xmlns="http://www.w3.org/2000/svg" xmlns:xlink="http://www.w3.org/1999/xlink" width="16px" height="16px" viewBox="0 0 16 16" version="1.1">
<g id="surface1">
<path style=" stroke:none;fill-rule:nonzero;fill:rgb(100%,100%,100%);fill-opacity:1;" d="M 16 10.75 L 16 11.25 C 16 11.664062 15.664062 12 15.25 12 C 14.835938 12 14.5 11.664062 14.5 11.25 L 14.5 10.75 C 14.5 7.160156 11.589844 4.25 8 4.25 C 4.410156 4.25 1.5 7.160156 1.5 10.75 L 1.5 11.25 C 1.5 11.664062 1.164062 12 0.75 12 C 0.335938 12 0 11.664062 0 11.25 L 0 10.75 C 0 6.332031 3.582031 2.75 8 2.75 C 12.417969 2.75 16 6.332031 16 10.75 Z M 8 8.75 C 6.757812 8.75 5.75 9.757812 5.75 11 L 5.75 11.25 C 5.75 11.664062 6.085938 12 6.5 12 C 6.914062 12 7.25 11.664062 7.25 11.25 L 7.25 11 C 7.25 10.585938 7.585938 10.25 8 10.25 C 8.414062 10.25 8.75 10.585938 8.75 11 L 8.75 11.25 C 8.75 11.664062 9.085938 12 9.5 12 C 9.914062 12 10.25 11.664062 10.25 11.25 L 10.25 11 C 10.25 9.757812 9.242188 8.75 8 8.75 Z M 8 5.75 C 5.101562 5.753906 2.753906 8.101562 2.75 11 L 2.75 11.25 C 2.75 11.664062 3.085938 12 3.5 12 C 3.914062 12 4.25 11.664062 4.25 11.25 L 4.25 11 C 4.25 8.929688 5.929688 7.25 8 7.25 C 10.070312 7.25 11.75 8.929688 11.75 11 L 11.75 11.25 C 11.75 11.664062 12.085938 12 12.5 12 C 12.914062 12 13.25 11.664062 13.25 11.25 L 13.25 11 C 13.246094 8.101562 10.898438 5.753906 8 5.75 Z M 8 5.75 "/>
</g>
</svg>
