<?xml version="1.0" encoding="UTF-8" standalone="no"?>
<svg
   t="1776777397165"
   class="icon"
   viewBox="0 0 1024 1024"
   version="1.1"
   p-id="6139"
   width="28"
   height="28"
   id="svg1"
   xmlns="http://www.w3.org/2000/svg"
   xmlns:svg="http://www.w3.org/2000/svg">
  <defs
     id="defs1" />
  <path
     d="m 594.048,937.472 c 33.6,35.072 -21.504,88.896 -59.456,55.04 -38.528,-34.56 -77.184,-69.056 -115.776,-103.616 -16.192,-14.464 -15.744,-42.688 -0.384,-57.344 38.08,-36.608 76.096,-73.216 114.176,-109.76 36.608,-35.008 91.648,17.216 60.864,53.504 C 783.296,753.28 851.584,544.96 748.48,395.328 c -59.648,-86.144 78.08,-163.136 137.088,-77.696 179.648,260.224 10.24,586.752 -291.52,619.84 z M 157.44,706.112 C -22.272,445.952 147.072,119.68 448.64,86.464 415.104,51.456 470.208,-2.432 508.096,31.488 c 38.592,34.432 77.12,68.928 115.84,103.552 16.064,14.336 15.744,42.56 0.384,57.344 -38.08,36.544 -76.032,73.024 -114.176,109.568 -36.48,35.072 -91.584,-17.216 -60.8,-53.376 -189.76,21.888 -258.112,230.272 -154.88,379.84 59.52,86.016 -78.08,163.072 -137.024,77.696 z"
     fill="#ffffff"
     p-id="6140"
     id="path1" />
</svg>
