<?xml version="1.0" encoding="UTF-8"?>
<svg xmlns="http://www.w3.org/2000/svg" xmlns:xlink="http://www.w3.org/1999/xlink" width="16px" height="16px" viewBox="0 0 16 16" version="1.1">
<g id="surface1">
<path style=" stroke:none;fill-rule:nonzero;fill:rgb(100%,100%,100%);fill-opacity:1;" d="M 3.667969 12 C 3.511719 12 3.359375 11.941406 3.238281 11.839844 C 1.855469 10.75 1.03125 9.09375 1 7.332031 C 1.03125 5.570312 1.855469 3.917969 3.238281 2.828125 C 3.417969 2.640625 3.683594 2.570312 3.925781 2.648438 C 4.171875 2.726562 4.347656 2.9375 4.382812 3.191406 C 4.421875 3.445312 4.308594 3.699219 4.09375 3.839844 C 3.015625 4.683594 2.371094 5.964844 2.332031 7.332031 C 2.371094 8.703125 3.015625 9.980469 4.09375 10.828125 C 4.371094 11.0625 4.410156 11.476562 4.179688 11.761719 C 4.054688 11.914062 3.863281 12 3.667969 12 Z M 3.667969 12 "/>
<path style=" stroke:none;fill-rule:nonzero;fill:rgb(100%,100%,100%);fill-opacity:1;" d="M 8 4.667969 C 8.226562 4.671875 8.449219 4.703125 8.667969 4.761719 L 8.667969 2 C 8.667969 1.632812 8.367188 1.332031 8 1.332031 C 7.632812 1.332031 7.332031 1.632812 7.332031 2 L 7.332031 4.761719 C 7.550781 4.703125 7.773438 4.671875 8 4.667969 Z M 8 4.667969 "/>
<path style=" stroke:none;fill-rule:nonzero;fill:rgb(100%,100%,100%);fill-opacity:1;" d="M 8 10 C 7.773438 9.996094 7.550781 9.964844 7.332031 9.90625 L 7.332031 13.332031 C 7.332031 13.703125 7.632812 14 8 14 C 8.367188 14 8.667969 13.703125 8.667969 13.332031 L 8.667969 9.90625 C 8.449219 9.964844 8.226562 9.996094 8 10 Z M 8 10 "/>
<path style=" stroke:none;fill-rule:nonzero;fill:rgb(100%,100%,100%);fill-opacity:1;" d="M 10.667969 10.667969 C 10.46875 10.667969 10.28125 10.578125 10.152344 10.425781 C 9.921875 10.144531 9.960938 9.726562 10.238281 9.492188 C 10.90625 8.972656 11.308594 8.179688 11.332031 7.332031 C 11.308594 6.488281 10.90625 5.695312 10.238281 5.171875 C 10.027344 5.03125 9.914062 4.78125 9.949219 4.527344 C 9.984375 4.273438 10.160156 4.0625 10.40625 3.984375 C 10.648438 3.90625 10.917969 3.972656 11.09375 4.160156 C 12.066406 4.929688 12.644531 6.09375 12.667969 7.332031 C 12.644531 8.574219 12.066406 9.738281 11.09375 10.507812 C 10.972656 10.609375 10.824219 10.664062 10.667969 10.667969 Z M 10.667969 10.667969 "/>
<path style=" stroke:none;fill-rule:nonzero;fill:rgb(100%,100%,100%);fill-opacity:1;" d="M 5.332031 10.667969 C 5.175781 10.664062 5.027344 10.609375 4.90625 10.507812 C 3.933594 9.738281 3.355469 8.574219 3.332031 7.332031 C 3.355469 6.09375 3.933594 4.929688 4.90625 4.160156 C 5.082031 3.972656 5.351562 3.90625 5.59375 3.984375 C 5.839844 4.0625 6.015625 4.273438 6.050781 4.527344 C 6.085938 4.78125 5.972656 5.03125 5.761719 5.171875 C 5.09375 5.695312 4.691406 6.488281 4.667969 7.332031 C 4.691406 8.179688 5.09375 8.972656 5.761719 9.492188 C 6.039062 9.726562 6.078125 10.144531 5.847656 10.425781 C 5.71875 10.578125 5.53125 10.667969 5.332031 10.667969 Z M 5.332031 10.667969 "/>
<path style=" stroke:none;fill-rule:nonzero;fill:rgb(100%,100%,100%);fill-opacity:1;" d="M 12.332031 12 C 12.136719 12 11.945312 11.914062 11.820312 11.761719 C 11.589844 11.476562 11.628906 11.0625 11.90625 10.828125 C 12.984375 9.980469 13.628906 8.703125 13.667969 7.332031 C 13.628906 5.964844 12.984375 4.683594 11.90625 3.839844 C 11.691406 3.699219 11.578125 3.445312 11.617188 3.191406 C 11.652344 2.9375 11.828125 2.726562 12.074219 2.648438 C 12.316406 2.570312 12.582031 2.640625 12.761719 2.828125 C 14.144531 3.917969 14.96875 5.570312 15 7.332031 C 14.96875 9.09375 14.144531 10.75 12.761719 11.839844 C 12.640625 11.941406 12.488281 12 12.332031 12 Z M 12.332031 12 "/>
<path style=" stroke:none;fill-rule:nonzero;fill:rgb(100%,100%,100%);fill-opacity:1;" d="M 8 8 C 7.632812 8 7.332031 7.703125 7.332031 7.332031 C 7.332031 6.964844 7.632812 6.667969 8 6.667969 C 8.367188 6.667969 8.667969 6.964844 8.667969 7.332031 C 8.667969 7.703125 8.367188 8 8 8 Z M 8 7.332031 Z M 8 7.332031 Z M 8 7.332031 Z M 8 7.332031 Z M 8 7.332031 Z M 8 7.332031 Z M 8 7.332031 Z M 8 7.332031 "/>
</g>
</svg>
