<?xml version="1.0" encoding="UTF-8"?>
<svg xmlns="http://www.w3.org/2000/svg" xmlns:xlink="http://www.w3.org/1999/xlink" width="16px" height="16px" viewBox="0 0 16 16" version="1.1">
<g id="surface1">
<path style=" stroke:none;fill-rule:evenodd;fill:rgb(100%,100%,100%);fill-opacity:1;" d="M 12.261719 10.515625 C 12.335938 11.074219 12.300781 11.671875 12.125 12.3125 C 11.679688 13.894531 10.652344 14.972656 9.222656 15.351562 C 8.835938 15.453125 8.4375 15.5 8.03125 15.5 C 6.289062 15.5 4.492188 14.632812 3.476562 13.625 L 3.039062 13.15625 L 4.503906 11.792969 L 4.910156 12.234375 C 5.734375 13.050781 7.441406 13.75 8.714844 13.417969 C 9.457031 13.21875 9.941406 12.683594 10.195312 11.777344 C 10.335938 11.277344 10.339844 10.863281 10.222656 10.515625 Z M 11.992188 2.253906 L 10.628906 3.714844 C 9.753906 2.898438 7.96875 2.25 6.714844 2.59375 C 6 2.785156 5.535156 3.277344 5.292969 4.089844 C 4.839844 5.617188 5.847656 6.191406 8.441406 6.96875 C 9.03125 7.148438 9.554688 7.308594 9.972656 7.515625 L 16 7.515625 L 16 9.515625 L 0 9.515625 L 0 7.515625 L 4.679688 7.515625 C 3.550781 6.707031 2.792969 5.484375 3.375 3.519531 C 3.933594 1.640625 5.214844 0.929688 6.191406 0.660156 C 8.253906 0.105469 10.71875 1.066406 11.992188 2.253906 Z M 11.992188 2.253906 "/>
</g>
</svg>
