<?xml version="1.0" encoding="UTF-8"?>
<svg xmlns="http://www.w3.org/2000/svg" xmlns:xlink="http://www.w3.org/1999/xlink" width="16px" height="16px" viewBox="0 0 16 16" version="1.1">
<g id="surface1">
<path style=" stroke:none;fill-rule:nonzero;fill:rgb(100%,100%,100%);fill-opacity:1;" d="M 14.046875 6.867188 L 10.046875 2.867188 C 9.953125 2.773438 9.828125 2.71875 9.695312 2.71875 L 2 2.71875 C 1.726562 2.71875 1.5 2.945312 1.5 3.21875 L 1.5 8.472656 C 1.5 8.609375 1.554688 8.734375 1.648438 8.828125 L 5.648438 12.820312 C 5.9375 13.113281 6.328125 13.273438 6.742188 13.273438 C 7.15625 13.273438 7.546875 13.113281 7.835938 12.820312 L 7.980469 12.671875 C 8.007812 12.726562 8.03125 12.78125 8.078125 12.820312 C 8.382812 13.117188 8.78125 13.273438 9.171875 13.273438 C 9.566406 13.273438 9.96875 13.117188 10.273438 12.820312 L 14.039062 9.054688 C 14.640625 8.453125 14.640625 7.472656 14.039062 6.867188 Z M 7.132812 12.113281 C 7.027344 12.21875 6.890625 12.273438 6.746094 12.273438 C 6.601562 12.273438 6.460938 12.210938 6.359375 12.113281 L 2.5 8.265625 L 2.5 3.71875 L 7.046875 3.71875 L 10.898438 7.574219 C 11.113281 7.789062 11.113281 8.132812 10.898438 8.34375 Z M 13.339844 8.34375 L 9.574219 12.113281 C 9.359375 12.328125 9.007812 12.328125 8.792969 12.113281 C 8.746094 12.066406 8.699219 12.039062 8.640625 12.015625 L 11.601562 9.054688 C 12.199219 8.445312 12.199219 7.46875 11.601562 6.867188 L 8.453125 3.71875 L 9.480469 3.71875 L 13.335938 7.574219 C 13.546875 7.789062 13.546875 8.132812 13.335938 8.34375 Z M 5.5 5.664062 C 5.5 6.125 5.125 6.5 4.664062 6.5 C 4.207031 6.5 3.835938 6.125 3.835938 5.664062 C 3.835938 5.207031 4.207031 4.835938 4.664062 4.835938 C 5.125 4.835938 5.5 5.207031 5.5 5.664062 Z M 5.5 5.664062 "/>
</g>
</svg>
