<?xml version="1.0" encoding="UTF-8"?>
<svg xmlns="http://www.w3.org/2000/svg" xmlns:xlink="http://www.w3.org/1999/xlink" width="16px" height="16px" viewBox="0 0 16 16" version="1.1">
<g id="surface1">
<path style=" stroke:none;fill-rule:nonzero;fill:rgb(100%,100%,100%);fill-opacity:1;" d="M 14.332031 1 L 1.667969 1 C 1.296875 1 1 1.296875 1 1.667969 L 1 14.332031 C 1 14.703125 1.296875 15 1.667969 15 L 14.332031 15 C 14.703125 15 15 14.703125 15 14.332031 L 15 1.667969 C 15 1.296875 14.703125 1 14.332031 1 Z M 11.132812 12.332031 L 10.265625 10.332031 L 5.734375 10.332031 L 4.867188 12.332031 L 3.398438 12.332031 L 7.167969 3.667969 L 8.832031 3.667969 L 12.601562 12.332031 Z M 6.300781 9 L 9.699219 9 L 8 4.964844 Z M 6.300781 9 "/>
</g>
</svg>
