<?xml version="1.0" encoding="UTF-8"?>
<svg xmlns="http://www.w3.org/2000/svg" xmlns:xlink="http://www.w3.org/1999/xlink" width="16px" height="16px" viewBox="0 0 16 16" version="1.1">
<g id="surface1">
<path style=" stroke:none;fill-rule:nonzero;fill:rgb(100%,100%,100%);fill-opacity:1;" d="M 11.066406 7.152344 C 11.804688 6.257812 11.957031 5.015625 11.460938 3.96875 C 10.96875 2.917969 9.910156 2.25 8.75 2.25 L 4 2.25 C 3.585938 2.25 3.25 2.585938 3.25 3 L 3.25 12.5 C 3.25 12.914062 3.585938 13.25 4 13.25 L 9.5 13.25 C 10.984375 13.25 12.277344 12.246094 12.648438 10.808594 C 13.015625 9.371094 12.367188 7.867188 11.066406 7.152344 Z M 4.75 3.75 L 8.75 3.75 C 9.578125 3.75 10.25 4.421875 10.25 5.25 C 10.25 6.078125 9.578125 6.75 8.75 6.75 L 4.75 6.75 Z M 9.5 11.75 L 4.75 11.75 L 4.75 8.25 L 9.5 8.25 C 10.464844 8.25 11.25 9.035156 11.25 10 C 11.25 10.964844 10.464844 11.75 9.5 11.75 Z M 9.5 11.75 "/>
</g>
</svg>
