<?xml version="1.0" encoding="UTF-8"?>
<svg xmlns="http://www.w3.org/2000/svg" xmlns:xlink="http://www.w3.org/1999/xlink" width="16px" height="16px" viewBox="0 0 16 16" version="1.1">
<g id="surface1">
<path style=" stroke:none;fill-rule:nonzero;fill:rgb(100%,100%,100%);fill-opacity:1;" d="M 12.75 3.5 C 12.75 3.914062 12.414062 4.25 12 4.25 L 10.039062 4.25 L 7.539062 11.75 L 9 11.75 C 9.414062 11.75 9.75 12.085938 9.75 12.5 C 9.75 12.914062 9.414062 13.25 9 13.25 L 6.503906 13.25 C 6.503906 13.25 6.5 13.25 6.5 13.25 C 6.5 13.25 6.496094 13.25 6.496094 13.25 L 4 13.25 C 3.585938 13.25 3.25 12.914062 3.25 12.5 C 3.25 12.085938 3.585938 11.75 4 11.75 L 5.960938 11.75 L 8.460938 4.25 L 7 4.25 C 6.585938 4.25 6.25 3.914062 6.25 3.5 C 6.25 3.085938 6.585938 2.75 7 2.75 L 9.511719 2.75 C 9.511719 2.75 9.515625 2.75 9.515625 2.75 L 12 2.75 C 12.414062 2.75 12.75 3.085938 12.75 3.5 Z M 12.75 3.5 "/>
</g>
</svg>
