<?xml version="1.0" encoding="UTF-8"?>
<svg xmlns="http://www.w3.org/2000/svg" xmlns:xlink="http://www.w3.org/1999/xlink" width="16px" height="16px" viewBox="0 0 16 16" version="1.1">
<g id="surface1">
<path style=" stroke:none;fill-rule:nonzero;fill:rgb(100%,100%,100%);fill-opacity:1;" d="M 1.75 4.25 C 1.75 3.835938 2.085938 3.5 2.5 3.5 L 13.5 3.5 C 13.914062 3.5 14.25 3.835938 14.25 4.25 C 14.25 4.664062 13.914062 5 13.5 5 L 2.5 5 C 2.085938 5 1.75 4.664062 1.75 4.25 Z M 2.5 7.5 L 10.5 7.5 C 10.914062 7.5 11.25 7.164062 11.25 6.75 C 11.25 6.335938 10.914062 6 10.5 6 L 2.5 6 C 2.085938 6 1.75 6.335938 1.75 6.75 C 1.75 7.164062 2.085938 7.5 2.5 7.5 Z M 13.5 8.5 L 2.5 8.5 C 2.085938 8.5 1.75 8.835938 1.75 9.25 C 1.75 9.664062 2.085938 10 2.5 10 L 13.5 10 C 13.914062 10 14.25 9.664062 14.25 9.25 C 14.25 8.835938 13.914062 8.5 13.5 8.5 Z M 10.5 11 L 2.5 11 C 2.085938 11 1.75 11.335938 1.75 11.75 C 1.75 12.164062 2.085938 12.5 2.5 12.5 L 10.5 12.5 C 10.914062 12.5 11.25 12.164062 11.25 11.75 C 11.25 11.335938 10.914062 11 10.5 11 Z M 10.5 11 "/>
</g>
</svg>
