<?xml version="1.0" encoding="UTF-8"?>
<svg xmlns="http://www.w3.org/2000/svg" xmlns:xlink="http://www.w3.org/1999/xlink" width="16px" height="16px" viewBox="0 0 16 16" version="1.1">
<g id="surface1">
<path style=" stroke:none;fill-rule:nonzero;fill:rgb(100%,100%,100%);fill-opacity:1;" d="M 14.25 13.5 C 14.25 13.914062 13.914062 14.25 13.5 14.25 L 2.5 14.25 C 2.085938 14.25 1.75 13.914062 1.75 13.5 C 1.75 13.085938 2.085938 12.75 2.5 12.75 L 13.5 12.75 C 13.914062 12.75 14.25 13.085938 14.25 13.5 Z M 8 12 C 10.621094 11.996094 12.746094 9.871094 12.75 7.25 L 12.75 3.5 C 12.75 3.085938 12.414062 2.75 12 2.75 C 11.585938 2.75 11.25 3.085938 11.25 3.5 L 11.25 7.25 C 11.25 9.046875 9.796875 10.5 8 10.5 C 6.203125 10.5 4.75 9.046875 4.75 7.25 L 4.75 3.5 C 4.75 3.085938 4.414062 2.75 4 2.75 C 3.585938 2.75 3.25 3.085938 3.25 3.5 L 3.25 7.25 C 3.253906 9.871094 5.378906 11.996094 8 12 Z M 8 12 "/>
</g>
</svg>
