<?xml version="1.0" encoding="UTF-8"?>
<svg xmlns="http://www.w3.org/2000/svg" xmlns:xlink="http://www.w3.org/1999/xlink" width="16px" height="16px" viewBox="0 0 16 16" version="1.1">
<g id="surface1">
<path style=" stroke:none;fill-rule:nonzero;fill:rgb(100%,100%,100%);fill-opacity:1;" d="M 13.75 3.5 L 13.75 5.5 C 13.75 5.914062 13.414062 6.25 13 6.25 C 12.585938 6.25 12.25 5.914062 12.25 5.5 L 12.25 4.25 L 8.75 4.25 L 8.75 11.75 L 10 11.75 C 10.414062 11.75 10.75 12.085938 10.75 12.5 C 10.75 12.914062 10.414062 13.25 10 13.25 L 6 13.25 C 5.585938 13.25 5.25 12.914062 5.25 12.5 C 5.25 12.085938 5.585938 11.75 6 11.75 L 7.25 11.75 L 7.25 4.25 L 3.75 4.25 L 3.75 5.5 C 3.75 5.914062 3.414062 6.25 3 6.25 C 2.585938 6.25 2.25 5.914062 2.25 5.5 L 2.25 3.5 C 2.25 3.085938 2.585938 2.75 3 2.75 L 13 2.75 C 13.414062 2.75 13.75 3.085938 13.75 3.5 Z M 13.75 3.5 "/>
</g>
</svg>
