<?xml version="1.0" encoding="UTF-8"?>
<svg xmlns="http://www.w3.org/2000/svg" xmlns:xlink="http://www.w3.org/1999/xlink" width="16px" height="16px" viewBox="0 0 16 16" version="1.1">
<g id="surface1">
<path style=" stroke:none;fill-rule:nonzero;fill:rgb(100%,100%,100%);fill-opacity:1;" d="M 5.429688 3.179688 C 5.304688 2.917969 5.039062 2.75 4.75 2.75 C 4.460938 2.75 4.195312 2.917969 4.070312 3.179688 L 0.0703125 11.679688 C -0.105469 12.054688 0.0546875 12.5 0.429688 12.679688 C 0.804688 12.855469 1.253906 12.695312 1.429688 12.320312 L 2.402344 10.25 L 7.097656 10.25 L 8.070312 12.320312 C 8.246094 12.695312 8.695312 12.855469 9.070312 12.679688 C 9.445312 12.5 9.605469 12.054688 9.429688 11.679688 Z M 3.109375 8.75 L 4.75 5.261719 L 6.390625 8.75 Z M 12.75 5.679688 C 12.148438 5.675781 11.5625 5.859375 11.070312 6.203125 C 10.730469 6.4375 10.648438 6.90625 10.886719 7.246094 C 11.125 7.585938 11.589844 7.667969 11.929688 7.429688 C 12.171875 7.265625 12.457031 7.179688 12.75 7.179688 C 13.4375 7.179688 14 7.628906 14 8.179688 L 14 8.265625 C 13.605469 8.089844 13.179688 8 12.75 8 C 11.234375 8 10 9.09375 10 10.4375 C 10 11.78125 11.234375 12.875 12.75 12.875 C 13.257812 12.878906 13.753906 12.75 14.199219 12.507812 C 14.410156 12.734375 14.734375 12.8125 15.023438 12.699219 C 15.3125 12.585938 15.5 12.308594 15.5 12 L 15.5 8.179688 C 15.5 6.804688 14.265625 5.679688 12.75 5.679688 Z M 12.75 11.375 C 12.074219 11.375 11.5 10.945312 11.5 10.4375 C 11.5 9.929688 12.074219 9.5 12.75 9.5 C 13.425781 9.5 14 9.929688 14 10.4375 C 14 10.945312 13.425781 11.375 12.75 11.375 Z M 12.75 11.375 "/>
</g>
</svg>
