<?xml version="1.0" encoding="UTF-8"?>
<svg xmlns="http://www.w3.org/2000/svg" xmlns:xlink="http://www.w3.org/1999/xlink" width="16px" height="16px" viewBox="0 0 16 16" version="1.1">
<g id="surface1">
<path style=" stroke:none;fill-rule:nonzero;fill:rgb(100%,100%,100%);fill-opacity:1;" d="M 14.25 8 C 14.25 8.414062 13.914062 8.75 13.5 8.75 L 11.617188 8.75 C 12.035156 9.234375 12.261719 9.859375 12.25 10.5 C 12.25 11.402344 11.761719 12.269531 10.910156 12.878906 C 10.125 13.441406 9.089844 13.75 8 13.75 C 6.910156 13.75 5.875 13.441406 5.089844 12.878906 C 4.238281 12.269531 3.75 11.402344 3.75 10.5 C 3.75 10.085938 4.085938 9.75 4.5 9.75 C 4.914062 9.75 5.25 10.085938 5.25 10.5 C 5.25 11.449219 6.507812 12.25 8 12.25 C 9.492188 12.25 10.75 11.449219 10.75 10.5 C 10.75 9.703125 10.167969 9.238281 8.539062 8.75 L 2.5 8.75 C 2.085938 8.75 1.75 8.414062 1.75 8 C 1.75 7.585938 2.085938 7.25 2.5 7.25 L 8.636719 7.25 C 8.636719 7.25 8.640625 7.25 8.640625 7.25 L 13.5 7.25 C 13.914062 7.25 14.25 7.585938 14.25 8 Z M 4.695312 6.25 C 5.109375 6.25 5.445312 5.914062 5.445312 5.5 C 5.445312 4.503906 6.542969 3.75 8 3.75 C 9.125 3.75 10.074219 4.210938 10.421875 4.921875 C 10.601562 5.296875 11.050781 5.449219 11.425781 5.269531 C 11.796875 5.089844 11.953125 4.640625 11.769531 4.265625 C 11.164062 3.023438 9.71875 2.25 8 2.25 C 5.6875 2.25 3.945312 3.648438 3.945312 5.5 C 3.945312 5.914062 4.28125 6.25 4.695312 6.25 Z M 4.695312 6.25 "/>
</g>
</svg>
