<?xml version="1.0" encoding="UTF-8" standalone="no"?>
<svg
   t="1773313303387"
   class="icon"
   viewBox="0 0 1024 1024"
   version="1.1"
   p-id="8420"
   width="20"
   height="20"
   id="svg2"
   xmlns="http://www.w3.org/2000/svg"
   xmlns:svg="http://www.w3.org/2000/svg">
  <defs
     id="defs2" />
  <path
     d="m 828.48,854.72 a 32,32 0 1 1 -44.8,-45.44 378.24,378.24 0 0 0 112.32,-268.8 384,384 0 0 0 -768,0 378.24,378.24 0 0 0 112.32,268.8 32,32 0 0 1 0,45.12 32,32 0 0 1 -45.44,0 A 443.84,443.84 0 0 1 512,96 448,448 0 0 1 960,540.48 441.6,441.6 0 0 1 828.48,854.72 Z"
     p-id="8421"
     id="path1"
     style="fill:#ffffff;fill-opacity:1" />
  <path
     d="m 96,608 a 32,32 0 0 1 0,-64 h 64 a 32,32 0 0 1 0,64 z m 768,0 a 32,32 0 0 1 0,-64 h 64 a 32,32 0 0 1 0,64 z M 201.28,278.72 a 32.130932,32.130932 0 1 1 45.44,-45.44 l 32,32 a 32.130932,32.130932 0 0 1 -45.44,45.44 z m 544,544 a 32.130932,32.130932 0 0 1 45.44,-45.44 l 32,32 a 32.130932,32.130932 0 0 1 -45.44,45.44 z m 32,-589.44 a 32.130932,32.130932 0 1 1 45.44,45.44 l -32,32 a 32.130932,32.130932 0 0 1 -45.44,-45.44 z m -544,544 a 32.130932,32.130932 0 0 1 45.44,45.44 l -32,32 A 32.130932,32.130932 0 0 1 201.28,809.28 Z M 480,160 a 32,32 0 0 1 64,0 v 64 a 32,32 0 0 1 -64,0 z m 117.76,345.92 -32,8.64 a 459.2,459.2 0 0 0 -68.8,22.08 41.92,41.92 0 0 0 -12.16,53.44 28.48,28.48 0 0 0 41.28,13.44 662.72,662.72 0 0 0 70.08,-75.2 l 7.68,-8.64 16,-19.2 z m -48.64,-53.44 32,-8.64 c 25.28,-6.4 52.16,-12.8 79.04,-18.88 l 25.92,-6.08 10.24,-2.24 a 32,32 0 0 1 32,51.2 c 0,1.6 -3.2,4.48 -6.4,8 l -16.96,21.12 c -17.92,21.76 -35.84,43.52 -53.12,64 l -7.68,8.96 a 542.08,542.08 0 0 1 -84.48,87.68 92.48,92.48 0 0 1 -132.16,-37.76 105.92,105.92 0 0 1 34.56,-137.28 387.84,387.84 0 0 1 87.04,-30.08 z"
     p-id="8422"
     id="path2"
     style="fill:#ffffff;fill-opacity:1" />
</svg>
