<?xml version="1.0" encoding="UTF-8"?>
<svg xmlns="http://www.w3.org/2000/svg" xmlns:xlink="http://www.w3.org/1999/xlink" width="16px" height="16px" viewBox="0 0 16 16" version="1.1">
<g id="surface1">
<path style=" stroke:none;fill-rule:nonzero;fill:rgb(100%,100%,100%);fill-opacity:1;" d="M 1.914062 4.96875 C 1.65625 4.644531 1.707031 4.171875 2.03125 3.914062 C 2.109375 3.851562 2.816406 3.304688 3.941406 3.023438 C 5.003906 2.757812 6.636719 2.691406 8.414062 3.875 C 10.929688 5.550781 13.011719 3.929688 13.03125 3.914062 C 13.355469 3.65625 13.828125 3.707031 14.085938 4.03125 C 14.34375 4.355469 14.292969 4.828125 13.96875 5.085938 C 13.890625 5.148438 13.183594 5.695312 12.058594 5.976562 C 11.632812 6.082031 11.199219 6.136719 10.761719 6.136719 C 9.84375 6.136719 8.746094 5.898438 7.582031 5.125 C 5.070312 3.449219 2.988281 5.070312 2.96875 5.085938 C 2.644531 5.34375 2.171875 5.292969 1.914062 4.96875 Z M 13.03125 7.414062 C 13.011719 7.429688 10.929688 9.050781 8.414062 7.375 C 6.636719 6.191406 5.003906 6.257812 3.941406 6.523438 C 2.816406 6.804688 2.109375 7.351562 2.03125 7.414062 C 1.707031 7.671875 1.65625 8.144531 1.914062 8.46875 C 2.171875 8.792969 2.644531 8.84375 2.96875 8.585938 C 2.988281 8.570312 5.070312 6.949219 7.585938 8.625 C 8.746094 9.398438 9.84375 9.636719 10.761719 9.636719 C 11.199219 9.636719 11.632812 9.582031 12.058594 9.476562 C 13.183594 9.195312 13.890625 8.648438 13.96875 8.585938 C 14.292969 8.328125 14.34375 7.855469 14.085938 7.53125 C 13.828125 7.207031 13.355469 7.15625 13.03125 7.414062 Z M 13.03125 10.914062 C 13.011719 10.929688 10.929688 12.550781 8.414062 10.875 C 6.636719 9.691406 5.003906 9.757812 3.941406 10.023438 C 2.816406 10.304688 2.109375 10.851562 2.03125 10.914062 C 1.707031 11.171875 1.65625 11.644531 1.914062 11.96875 C 2.171875 12.292969 2.644531 12.34375 2.96875 12.085938 C 2.988281 12.070312 5.070312 10.449219 7.585938 12.125 C 8.746094 12.898438 9.84375 13.136719 10.761719 13.136719 C 11.199219 13.136719 11.632812 13.082031 12.058594 12.976562 C 13.183594 12.695312 13.890625 12.148438 13.96875 12.085938 C 14.292969 11.828125 14.34375 11.355469 14.085938 11.03125 C 13.828125 10.707031 13.355469 10.65625 13.03125 10.914062 Z M 13.03125 10.914062 "/>
</g>
</svg>
