<?xml version="1.0" encoding="UTF-8"?>
<svg xmlns="http://www.w3.org/2000/svg" xmlns:xlink="http://www.w3.org/1999/xlink" width="32px" height="32px" viewBox="0 0 32 32" version="1.1">
<g id="surface1">
<path style=" stroke:none;fill-rule:nonzero;fill:rgb(100%,100%,100%);fill-opacity:1;" d="M 13.332031 5.332031 C 13.332031 6.804688 12.140625 8 10.667969 8 C 9.195312 8 8 6.804688 8 5.332031 C 8 3.859375 9.195312 2.667969 10.667969 2.667969 C 12.140625 2.667969 13.332031 3.859375 13.332031 5.332031 Z M 10.667969 13.332031 C 9.195312 13.332031 8 14.527344 8 16 C 8 17.472656 9.195312 18.667969 10.667969 18.667969 C 12.140625 18.667969 13.332031 17.472656 13.332031 16 C 13.332031 14.527344 12.140625 13.332031 10.667969 13.332031 Z M 10.667969 24 C 9.195312 24 8 25.195312 8 26.667969 C 8 28.140625 9.195312 29.332031 10.667969 29.332031 C 12.140625 29.332031 13.332031 28.140625 13.332031 26.667969 C 13.332031 25.195312 12.140625 24 10.667969 24 Z M 21.332031 8 C 22.804688 8 24 6.804688 24 5.332031 C 24 3.859375 22.804688 2.667969 21.332031 2.667969 C 19.859375 2.667969 18.667969 3.859375 18.667969 5.332031 C 18.667969 6.804688 19.859375 8 21.332031 8 Z M 21.332031 18.667969 C 22.804688 18.667969 24 17.472656 24 16 C 24 14.527344 22.804688 13.332031 21.332031 13.332031 C 19.859375 13.332031 18.667969 14.527344 18.667969 16 C 18.667969 17.472656 19.859375 18.667969 21.332031 18.667969 Z M 21.332031 29.332031 C 22.804688 29.332031 24 28.140625 24 26.667969 C 24 25.195312 22.804688 24 21.332031 24 C 19.859375 24 18.667969 25.195312 18.667969 26.667969 C 18.667969 28.140625 19.859375 29.332031 21.332031 29.332031 Z M 21.332031 29.332031 "/>
</g>
</svg>
