<!-- Created with PixiEditor (https://pixieditor.net) -->
<svg version="1.1" viewBox="0 0 16 16" xmlns="http://www.w3.org/2000/svg">
  <g opacity="1" id="Dialog Box">
    <path d="M7.48009 15.2119C7.48009 15.2119 6.92795 11.5985 6.92795 11.5985C6.92795 11.5985 11.9496 11.5901 11.8337 11.5985C11.8337 11.5985 9.23872 14.312 8.49894 14.9694C8.20628 15.2295 8.05397 15.4531 7.76799 15.4589C7.48201 15.4647 7.48009 15.2119 7.48009 15.2119Z" fill-rule="nonzero" transform="matrix(1.0701652, 0, 0, 1, -0.567482, 0)" fill="#ffffff" fill-opacity="1" stroke="#ffffff" stroke-width="0" stroke-linecap="butt" stroke-linejoin="miter" opacity="1" id="Tail" />
    <path d="M13.0036 11.9925C10.9743 11.9925 5.01254 11.9925 3.00626 11.9925C0.99998 11.9925 0.99998 10.053 0.99998 10.053C0.99998 10.053 0.99998 5.3134 0.99998 3.4075C0.99998 1.5016 3.00626 1.5016 3.00626 1.5016C3.00626 1.5016 10.9759 1.5016 13.0036 1.5016C15.0313 1.5016 15.0313 3.4075 15.0313 3.4075L15.0313 10.053C15.0313 10.053 15.0329 11.9925 13.0036 11.9925ZM4.00302 2.58217L6.92795 2.58217C6.92795 2.58217 7.98745 2.83148 8 3.83252C8.01255 4.83356 6.92795 5.13559 6.92795 5.13559C6.92795 5.13559 4.00302 5.13559 4.00302 5.13559C4.00302 5.13559 3.00812 4.84375 3.00626 3.83252C3.0044 2.82129 4.00302 2.58217 4.00302 2.58217ZM4.00302 5.88013L11.5081 5.88013C11.5081 5.88013 13.4849 5.647 13.4747 8C13.4644 10.353 11.5081 10.053 11.5081 10.053L4.00302 10.053C4.00302 10.053 2.44986 10.1199 2.44986 8C2.44986 5.88013 4.00302 5.88013 4.00302 5.88013Z" fill-rule="evenodd" transform="matrix(1.0690223, 0, 0, 1, -0.5722083, 0)" fill="#ffffff" fill-opacity="1" stroke="#ffffff" stroke-width="0" stroke-linecap="butt" stroke-linejoin="miter" opacity="1" id="Base" />
  </g>
</svg>