<!-- Created with PixiEditor (https://pixieditor.net) -->
<svg version="1.1" viewBox="0 0 16 16" xmlns="http://www.w3.org/2000/svg">
  <g opacity="1" id="Dialog Option">
    <path d="M7.48009 15.2119C7.48009 15.2119 6.92795 11.5985 6.92795 11.5985C6.92795 11.5985 11.9496 11.5901 11.8337 11.5985C11.8337 11.5985 9.23872 14.312 8.49894 14.9694C8.20628 15.2295 8.05397 15.4531 7.76799 15.4589C7.48201 15.4647 7.48009 15.2119 7.48009 15.2119Z" fill-rule="nonzero" transform="matrix(1.0991396, 0, -2.5656844E-15, 1.1002287, 1.4250898, -3.215444)" fill="#ffffff" fill-opacity="1" stroke="#ffffff" stroke-width="0" stroke-linecap="butt" stroke-linejoin="miter" opacity="1" id="Tail" />
    <path d="M13.334 10.0162C11.173 10.0162 4.82457 10.0162 2.68815 10.0162C0.551739 10.0162 0.551739 8.2905 0.551739 8.2905C0.551739 8.2905 0.551739 7.0502 0.551739 5.96883C0.551739 4.88746 0.595364 4.06384 2.68815 4.06384C4.78094 4.06384 11.1747 4.06384 13.334 4.06384C15.4932 4.06384 15.4932 5.96883 15.4932 5.96883L15.4932 8.2905C15.4932 8.2905 15.4949 10.0162 13.334 10.0162ZM3.47405 5.96883C2.58625 5.96883 2.55996 6.73169 2.54692 6.9399C2.53387 7.14812 2.62037 7.8365 3.47405 7.8365C4.32773 7.8365 4.39983 7.15224 4.41691 6.9399C4.434 6.72757 4.36185 5.96883 3.47405 5.96883ZM5.39156 6.9399C5.39156 6.9399 5.51228 7.8365 6.36529 7.8365C7.21831 7.8365 7.32878 7.30249 7.32878 6.9399C7.32878 6.57732 7.2165 5.96883 6.36529 5.96883C5.51409 5.96883 5.39156 6.9399 5.39156 6.9399ZM8.43643 6.9399C8.43643 6.9399 8.46308 7.8365 9.40631 7.8365C10.3495 7.8365 10.4313 7.13331 10.4313 6.9399C10.4313 6.63301 10.3139 5.96883 9.40631 5.96883C8.49876 5.96883 8.43643 6.9399 8.43643 6.9399ZM5.39156 6.9399L5.39156 6.9399L5.39156 6.9399" fill-rule="nonzero" transform="matrix(1, 0, 0, 1, -0.022445679, 0.9757112)" fill="#ffffff" fill-opacity="1" stroke="#ffffff" stroke-width="0" stroke-linecap="butt" stroke-linejoin="miter" opacity="1" id="Base" />
    <path d="M6.16375 2.82452C6.16375 2.82452 4.01089 1.31998 4.00376 0.924119C3.99663 0.528258 4.2997 0.528258 4.50412 0.528258C4.70854 0.528258 5.60006 0.528258 7.28852 0.528258C8.97697 0.528258 9.56529 0.528258 10.0234 0.528258C10.4816 0.528258 10.4816 0.690784 10.4816 0.924119C10.4816 1.15745 8.87027 2.38671 8.33751 2.82452C8.04594 3.06413 7.60285 3.45356 7.28852 3.45794C6.97418 3.46232 6.16375 2.82452 6.16375 2.82452Z" fill-rule="nonzero" transform="matrix(1, 0, 0, 1, -0.022445679, 0.9757112)" fill="#ffffff" fill-opacity="1" stroke="#ffffff" stroke-width="0" stroke-linecap="butt" stroke-linejoin="miter" opacity="1" id="Tail" />
  </g>
</svg>