<!-- Created with PixiEditor (https://pixieditor.net) -->
<svg version="1.1" viewBox="0 0 16 16" xmlns="http://www.w3.org/2000/svg">
  <g opacity="1" id="Dialog Player">
    <path d="M7.48009 15.2119C7.48009 15.2119 6.92795 11.5985 6.92795 11.5985C6.92795 11.5985 11.9496 11.5901 11.8337 11.5985C11.8337 11.5985 9.23872 14.312 8.49894 14.9694C8.20628 15.2295 8.05397 15.4531 7.76799 15.4589C7.48201 15.4647 7.48009 15.2119 7.48009 15.2119Z" fill-rule="nonzero" transform="matrix(1.0698528, 0, -4.8594673E-18, 1, -0.5783272, 0)" fill="#ffffff" fill-opacity="1" stroke="#ffffff" stroke-width="0" stroke-linecap="butt" stroke-linejoin="miter" opacity="1" id="Tail" />
    <path d="M13.0036 11.9925C10.9743 11.9925 5.01254 11.9925 3.00626 11.9925C0.99998 11.9925 0.99998 10.053 0.99998 10.053C0.99998 10.053 0.99998 5.3134 0.99998 3.4075C0.99998 1.5016 3.00626 1.5016 3.00626 1.5016C3.00626 1.5016 10.9759 1.5016 13.0036 1.5016C15.0313 1.5016 15.0313 3.4075 15.0313 3.4075L15.0313 10.053C15.0313 10.053 15.0329 11.9925 13.0036 11.9925ZM5.45835 9.61465C5.18274 9.41755 4.9809 8.60648 4.93367 7.34781C4.87733 5.84623 5.03445 3.87666 5.45835 3.87666C5.82148 3.87666 6.21071 4.02191 7.61258 4.60717C8.01579 4.77551 8.48265 4.97421 8.9558 5.18608C10.3677 5.81829 11.8356 6.56768 11.8356 6.97689C11.8356 7.47514 10.3316 8.15733 8.85707 8.73661C8.45477 8.89466 8.05367 9.04461 7.67475 9.1762C6.59066 9.5527 5.68811 9.77896 5.45835 9.61465Z" fill-rule="evenodd" transform="matrix(1.0698528, 0, -4.8594673E-18, 1, -0.5783272, 0)" fill="#ffffff" fill-opacity="1" stroke="#ffffff" stroke-width="0" stroke-linecap="butt" stroke-linejoin="miter" opacity="1" id="Base" />
  </g>
</svg>